/* XPM */
static char *_582214520962[] = {
/* columns rows colors chars-per-pixel */
"25 25 196 2 ",
"   c #1E170F",
".  c #1D071D",
"X  c #150922",
"o  c #191120",
"O  c #311E23",
"+  c #3B0F3B",
"@  c #2A292C",
"#  c #302C32",
"$  c #372C3C",
"%  c #3D373A",
"&  c #4D231D",
"*  c #46123C",
"=  c #4E2A3F",
"-  c #433337",
";  c #7F491E",
":  c #45402C",
">  c #56452F",
",  c #66472A",
"<  c #6B5823",
"1  c #3E1350",
"2  c #3F3F45",
"3  c #451353",
"4  c #511054",
"5  c #441944",
"6  c #512F4A",
"7  c #433A49",
"8  c #4F3E4D",
"9  c #403843",
"0  c #5C2951",
"q  c #533A52",
"w  c #492A52",
"e  c #61245C",
"r  c #633E5E",
"t  c #5B186A",
"y  c #5B1A77",
"u  c #651779",
"i  c #5E2178",
"p  c #5B396A",
"a  c #692960",
"s  c #603C60",
"d  c #60377D",
"f  c #763676",
"g  c #7A277D",
"h  c #49404C",
"j  c #50464D",
"k  c #53504D",
"l  c #524D54",
"z  c #575159",
"x  c #5A5556",
"c  c #745644",
"v  c #65495F",
"b  c #67595B",
"n  c #734B4A",
"m  c #796049",
"M  c #7C645F",
"N  c #6C6655",
"B  c #5C5662",
"V  c #664C65",
"C  c #645662",
"Z  c #615D63",
"A  c #79586D",
"S  c #665975",
"D  c #785E77",
"F  c #6A4578",
"G  c #696465",
"H  c #6F626E",
"J  c #73666E",
"K  c #7D706E",
"L  c #756671",
"P  c #766F73",
"I  c #7E6B7A",
"U  c #797678",
"Y  c #A57537",
"T  c #803973",
"R  c #8E5857",
"E  c #836841",
"W  c #8B7557",
"Q  c #927653",
"!  c #9B794D",
"~  c #A37E43",
"^  c #80586D",
"/  c #845079",
"(  c #834576",
")  c #8F7A70",
"_  c #AC7F62",
"`  c #AA863B",
"'  c #9A865E",
"]  c #A08348",
"[  c #B38448",
"{  c #B3924B",
"}  c #A6895E",
"|  c #B08A59",
" . c #B59B59",
".. c #B6A05D",
"X. c #978268",
"o. c #918C77",
"O. c #A38966",
"+. c #A9936A",
"@. c #A69777",
"#. c #B99A74",
"$. c #B8A275",
"%. c #BEB47E",
"&. c #D3B055",
"*. c #C0A765",
"=. c #E6B266",
"-. c #DDC67E",
";. c #601280",
":. c #7C1D93",
">. c #5F3180",
",. c #762881",
"<. c #5D5983",
"1. c #614582",
"2. c #796285",
"3. c #7A67A0",
"4. c #913196",
"5. c #8C3984",
"6. c #824181",
"7. c #935991",
"8. c #935288",
"9. c #866B88",
"0. c #946C8C",
"q. c #8E7E8B",
"w. c #827B83",
"e. c #917A8C",
"r. c #976A98",
"t. c #957993",
"y. c #9F7D96",
"u. c #977592",
"i. c #896892",
"p. c #A7778D",
"a. c #9760A0",
"s. c #B162AD",
"d. c #A77EA6",
"f. c #8E838C",
"g. c #888286",
"h. c #92838F",
"j. c #8F8E94",
"k. c #978897",
"l. c #9A9199",
"z. c #A98885",
"x. c #B29E8A",
"c. c #A18D9E",
"v. c #A38799",
"b. c #A29898",
"n. c #AC9A93",
"m. c #B3AE8E",
"M. c #BDB98E",
"N. c #B7AB9A",
"B. c #BDB692",
"V. c #9E90A7",
"C. c #A98CA4",
"Z. c #A387A1",
"A. c #B38BA7",
"S. c #AE9BAD",
"D. c #A792A3",
"F. c #B19AA3",
"G. c #AD96BF",
"H. c #BA99B5",
"J. c #B78EB8",
"K. c #A9A1A8",
"L. c #B3A5AB",
"P. c #B3AAAA",
"I. c #BCA6B6",
"U. c #BBB2B2",
"Y. c #C0AF87",
"T. c #C0B288",
"R. c #C6BD9A",
"E. c #C1ACA3",
"W. c #C3A6B7",
"Q. c #C2B2B5",
"!. c #CEC68B",
"~. c #C7C098",
"^. c #D4C98A",
"/. c #E1D58C",
"(. c #EACD90",
"). c #E6DDA0",
"_. c #D085C0",
"`. c #DA9EC4",
"'. c #C9AFC6",
"]. c #C2B6C0",
"[. c #D3B7CA",
"{. c #D0BAC8",
"}. c #DDB4D4",
"|. c #CCC5C7",
" X c #DCC4D7",
".X c #D7D4D4",
"XX c #DBD3D4",
"oX c #DFD8D9",
"OX c #E0CDC4",
"+X c #E2DCDC",
"@X c #E7C3D4",
"#X c #F1D3E7",
"$X c #F0EBED",
"%X c #FBF8FA",
"&X c #E7E6E7",
"*X c None",
/* pixels */
"*X*X*X*X*X*X*X*X*X*X*X*X*X*X*X*X*X*X*X*X*X*X*X*X*X",
"*X*X*X*X*X*X*X*X*X*X*X*XS.'.k.*X*X*X*X*X*X*X*X*X*X",
"*X*Xt.S.*X*X*X2.) B.N.k.J. X XH.*X*X*X*X*X*X*X*X*X",
"*Xv G C.I.V.h.K @.M.W ) t.'.'.Z.S *X*X*X*X*X*X*X*X",
"b x h.D.j.G.D.W ' #.- - c i i I I.*X*X*X*X*X*X*X*X",
"*Xk t.D.j p i.#.' #.b $ m c 3 y a.d.*X*X*X*X*X*X*X",
"*Xx q.A.b 8 z.+.*.^ / ^ J $ 3 u ;.>.1.*X*X*X*X*X*X",
"*X*X% C z *X*XP.b.n.W.F.g.w :.f u *Xw *X*X*X*X*X*X",
"*X*X*X*X*X*Xl.OXN A y.u.F.+.n f ,.t a *X*X*X*X*X*X",
"*X*X*X*X*X*Xk.O.< . W.N.-.&.c q A I i.*X*X*X*X*X*X",
"*X*X*X*X*X*X*XO Y ` ] ] { #.[.F.$.R.m.b.*X*X*X*X*X",
"*X*X*X*X*X*X*XX & ; , R p.@Xn.N @.!.T.$.*X*X*X*X*X",
"*X*X*X*X*X*X*X*XX e d.}.#XQ.Q O.%.^.M.(.x.*X*X*X*X",
"*X*X*X*X*X*X*X*X*Xt s.[.Q.O.| O.@./.).R.[ *X*X*X*X",
"*X*X*X*X*X*X*X*X*X5 s A. X| ..O.$.~.T.=.[ l.*X*X*X",
"*X*X*X*X*X*X*X*X*XT + e p.Q J +.+., W _ Q.H.l.*X*X",
"*X*X*X*X*X*X*X*X*X*Xf 8.s 6.f - E 5 7.Q.k.2 D.*X*X",
"*X*X*X*X*X*X*X*X*X*X*X/ r ( ^ - 1.9.g.j.B f.H.D.*X",
"*X*X*X*X*X*X*X*X*X*X*X*X6 e 0.J.[.v.$ 9 h L J g.*X",
"*X*X*X*X*X*X*X*X*X*X*X*X) y./ V V <.l J P C.I.l.*X",
"*X*X*X*X*X*X*X*X*X*X*X*Xl.l.L.- ! G x w.8 I H 2.*X",
"*X*X*X*X*X*X*X*X*X*X&X+XP.L.P    .o.2 7 A f.b.j.P ",
"*X*X*X*X*X*X*X*XoX%XXXU.|.U.- . = L.# h z Z # e.L ",
"*X*X*X*X*X*X*XXX%X$XoX+X.XC 4 ,.4.r.D @ o 7 $ u.*X",
"*X*X*X*X*X*X*X*X%X|.+X+XU * 5._.`.d 2.A.S 3.d z *X"
};
