/* XPM */
static char *_582218845062[] = {
/* columns rows colors chars-per-pixel */
"58 58 252 2 ",
"   c #020102",
".  c #0A070A",
"X  c #0C0517",
"o  c #150816",
"O  c #181618",
"+  c #12050B",
"@  c #240C1B",
"#  c #26181E",
"$  c #37190E",
"%  c #2B2416",
"&  c #1B0828",
"*  c #1A1129",
"=  c #261A29",
"-  c #2A1A34",
";  c #361838",
":  c #2D0A2F",
">  c #2A2629",
",  c #32292A",
"<  c #2E2A33",
"1  c #382838",
"2  c #393538",
"3  c #383329",
"4  c #4D2B17",
"5  c #693719",
"6  c #43133E",
"7  c #483229",
"8  c #45263A",
"9  c #433638",
"0  c #543526",
"q  c #6C3E26",
"w  c #544A37",
"e  c #685D3C",
"r  c #7A5638",
"t  c #6D482A",
"y  c #3A1356",
"u  c #330D4E",
"i  c #3E3845",
"p  c #3D2C47",
"a  c #2E0B6D",
"s  c #332D66",
"d  c #0C0256",
"f  c #481848",
"g  c #4C0C55",
"h  c #4E1656",
"j  c #482749",
"k  c #473945",
"l  c #55364B",
"z  c #5B2656",
"x  c #4A3558",
"c  c #58365A",
"v  c #522B4C",
"b  c #64245A",
"n  c #653658",
"m  c #4A0866",
"M  c #560977",
"N  c #56146F",
"B  c #691779",
"V  c #6A196B",
"C  c #562F6B",
"Z  c #662868",
"A  c #683C68",
"S  c #792879",
"D  c #793673",
"F  c #6C2D6F",
"G  c #434144",
"H  c #4A4649",
"J  c #54484A",
"K  c #574956",
"L  c #545255",
"P  c #5C585A",
"I  c #4D4B51",
"U  c #66475B",
"Y  c #655A59",
"T  c #6E5543",
"R  c #766859",
"E  c #72684E",
"W  c #5D5962",
"Q  c #5C446E",
"!  c #754568",
"~  c #665966",
"^  c #775867",
"/  c #685C72",
"(  c #795976",
")  c #724772",
"_  c #646263",
"`  c #6A6468",
"'  c #74666C",
"]  c #736B74",
"[  c #7A6979",
"{  c #747274",
"}  c #7D7A7D",
"|  c #7A7578",
" . c #766E6D",
".. c #93511B",
"X. c #8D5A2A",
"o. c #976A32",
"O. c #AB7734",
"+. c #AE742E",
"@. c #9F601E",
"#. c #CB7531",
"$. c #812D7A",
"%. c #846949",
"&. c #997745",
"*. c #89724E",
"=. c #A4764C",
"-. c #865579",
";. c #894C77",
":. c #87776D",
">. c #85687A",
",. c #867B7B",
"<. c #826760",
"1. c #985E52",
"2. c #C67A41",
"3. c #B48337",
"4. c #CA9636",
"5. c #DBA538",
"6. c #E89F35",
"7. c #E8C23C",
"8. c #958651",
"9. c #AA8A48",
"0. c #A99858",
"q. c #B39049",
"w. c #968769",
"e. c #998C79",
"r. c #989378",
"t. c #90886C",
"y. c #B0966E",
"u. c #B7AD79",
"i. c #BBAE6E",
"p. c #B5A55F",
"a. c #D39853",
"s. c #C8A84A",
"d. c #C4AA56",
"f. c #D4B050",
"g. c #E8B652",
"h. c #CDB36F",
"j. c #E5B568",
"k. c #D59C65",
"l. c #D6C678",
"z. c #EAD371",
"x. c #FAE977",
"c. c #F8E46B",
"v. c #F2CA57",
"b. c #510B86",
"n. c #640A86",
"m. c #681885",
"M. c #761786",
"N. c #771692",
"B. c #742A8B",
"V. c #785285",
"C. c #7B7685",
"Z. c #78618E",
"A. c #6F63A8",
"S. c #841C95",
"D. c #882A89",
"F. c #8E3591",
"G. c #9D31A4",
"H. c #9B4995",
"J. c #8E528D",
"K. c #A65896",
"L. c #886787",
"P. c #897686",
"I. c #97778A",
"U. c #9A7799",
"Y. c #976B90",
"T. c #A86797",
"R. c #A47898",
"E. c #A1768B",
"W. c #AB56A6",
"Q. c #B151A2",
"!. c #996BA6",
"~. c #B57AA5",
"^. c #B372AB",
"/. c #C874B2",
"(. c #838283",
"). c #8B848A",
"_. c #8C8A8C",
"`. c #898486",
"'. c #92888A",
"]. c #988895",
"[. c #949394",
"{. c #9C949B",
"}. c #9B9998",
"|. c #96918C",
" X c #AA9C8B",
".X c #A88A9C",
"XX c #A5989A",
"oX c #AC8D88",
"OX c #B6A38A",
"+X c #ABA59A",
"@X c #B3AB92",
"#X c #998EA9",
"$X c #A989A4",
"%X c #B78AAA",
"&X c #A899A4",
"*X c #B597A9",
"=X c #B886B5",
"-X c #B997B6",
";X c #ABA6AB",
":X c #A9A6A6",
">X c #B5A9AC",
",X c #B9A7B5",
"<X c #BAB5B7",
"1X c #B3AEAE",
"2X c #C7AF90",
"3X c #C58DB6",
"4X c #C6A4BC",
"5X c #C3B9BC",
"6X c #CDB8AF",
"7X c #BFC2BA",
"8X c #D4C895",
"9X c #E5DA92",
"0X c #FAE787",
"qX c #FBEA9B",
"wX c #FBEE91",
"eX c #D1C9B0",
"rX c #E5D7AB",
"tX c #F4E8AE",
"yX c #BF96C3",
"uX c #B1ABCE",
"iX c #D397C5",
"pX c #C6A9C4",
"aX c #D8A6CB",
"sX c #C8B8C4",
"dX c #D3B7C9",
"fX c #D9BBD5",
"gX c #D5A6D5",
"hX c #E6AED4",
"jX c #E5B9D6",
"kX c #E3A8CF",
"lX c #C9C5C7",
"zX c #D5C7C9",
"xX c #D9C8D4",
"cX c #DAD5D6",
"vX c #DBD8C8",
"bX c #E5C8DB",
"nX c #E2DBDC",
"mX c #E4D3DC",
"MX c #E8D1D0",
"NX c #EBCBE1",
"BX c #E9D6E1",
"VX c #F5D4E5",
"CX c #F6D8E9",
"ZX c #F4CCE4",
"AX c #EBE3E6",
"SX c #EBE5E9",
"DX c #F1E8EE",
"FX c #F7EAF3",
"GX c #F5F2F4",
"HX c #FBF6FA",
"JX c #DDD3E5",
"KX c None",
/* pixels */
"KXKXKXKXKXKXKXKXKXKXKXKXKXKXKXKXKXKXKXKXKXKXKXKXKXKXKXKXKXKXKXKXKXKXKXKXKXKXKXKXKXKXKXKXKXKXKXKXKXKXKXKXKXKXKXKXKXKX",
"KXKXKXKXKXKXKXKXKXKXKXKXKXKXKXKXKXKXKXKXKXKXKXKXKXKXKXKXKXKXDXzXP.KXKXKXKXKXKXKXKXKXKXKXKXKXKXKXKXKXKXKXKXKXKXKXKXKX",
"KXKXKXKXKXKXKXKXKXKXKXKXKXKXKXKXKXKXKXKXKXKXKXKXKXKXKXKX&XxXcXsXxX&XC.KXKXKXKXKXKXKXKXKXKXKXKXKXKXKXKXKXKXKXKXKXKXKX",
"KXKXKXKXKXKXKXKXKXKXKXKXKXKXKXKXKXKXKXKX}.|.} |.KXKXKXQ Z.-X-XL..X].~ KXKXKXKXKXKXKXKXKXKXKXKXKXKXKXKXKXKXKXKXKXKXKX",
"KXKXKXKXKXKXKXKXKXKXKXKXKXKXKXKXKXKX&X`.[.@X@X@X5X1X].P.&XyX!.xXNXfXyXP.KXKXKXKXKXKXKXKXKXKXKXKXKXKXKXKXKXKXKXKXKXKX",
"KXKXKXKXKXJ.4X:XKXKXKXKXKXKXKXKXXX_ ).:.E +X8XtX}.(.$XyX$X^.fXHXHXFXxXpX$XpXuXKXKXKXKXKXKXKXKXKXKXKXKXKXKXKXKXKXKXKX",
"KXKXKXdX[.~ 1X%X>X$X3XxXBX&XI.R.| } R =.h.XX8X1X| T U.=X=XgXDXdXfXfXgXfXuXQ A KXKXKXKXKXKXKXKXKXKXKXKXKXKXKXKXKXKXKX",
"KXKXT.~ > I C.~.*X4X>.[ [ L.L.^  .} ,.r. Xk.eXt.9.z.R x -XxX,X=XfXJX-XJ.&XeX/ C KXKXKXKXKXKXKXKXKXKXKXKXKXKXKXKXKXKX",
"KXj ; O (.).H R.%X5XcX#X#XuXuX,.J :.r.|.h.8Xu.w 3 8.E y.R < P.pXyX;XpXyXU J KXKXKXKXKXKXKXKXKXKXKXKXKXKXKXKXKXKXKXKX",
"KXK 2 L P I P.;X;XlX1X,XuXJXuX,.q O.:.8.j. Xq.H O . t.&.2 w C N m y x C.{.I.].KXKXKXKXKXKXKXKXKXKXKXKXKXKXKXKXKXKXKX",
"].K e :X,XsX4X-X] (.i *X#XgX$X XoX2X9 O. Xp.u.P.P   > w %.=.y M n.n.m : (.BX-XsXKXKXKXKXKXKXKXKXKXKXKXKXKXKXKXKXKXKX",
"} = % L ( 3XU.&X[.2 > J.V.A.Q e. XR 4  .y.j.].^ 3     O 9.g.r g B B M n.Z {.,XfXsXKXKXKXKXKXKXKXKXKXKXKXKXKXKXKXKXKX",
"KX. 2 +X} ~ %X4X&XP 2 z C s A R.8Xq.X.&Xs.2X;.l K ;., + , h.3.e 0 f u a b.B ) !.yXpX&XKXKXKXKXKXKXKXKXKXKXKXKXKXKXKX",
"KXKX> ` ~ L.pXY.&X{ > j c Y T.R.rX2X;X0.f.%XJ.c dX.XY ' j v E 8.t 9 u m M B.N.m.N C !.KXKXKXKXKXKXKXKXKXKXKXKXKXKXKX",
"KXKX< E :X{ -.$X-X&XO 1 ] ,.P.|.y.:.E 7.2XR.c b ( Z l <.` ~ .   X & N S.S.B N N.m.b.C $XKXKXKXKXKXKXKXKXKXKXKXKXKXKX",
"KXKXP.J _.;X( pXU.).# H KXKXKXe.a.*.0.v.*Xk w ;.3XH.z >..X[.2 k m M m m z B b.b.V.x y x KXKXKXKXKXKXKXKXKXKXKXKXKXKX",
"KXKXKXU 3 L L .X&Xk i KXKXKXKXe.y.@XXXr.P.8.d.'.hXT.+X5XzX;X>.I B G.S.V.; : B B.KXKXKXy KXKXKXKXKXKXKXKXKXKXKXKXKXKX",
"KXKXKX< . * w 2 = G KXKXKXKXKX| P.cXxX .Y [.lXNX-XeXAX>XP.` H & n.N.F.H.W.N.n.B.KXKXKXp 1 KXKXKXKXKXKXKXKXKXKXKXKXKX",
"KXKXKXKXKXKX> < ` KXKXKXKXKXKX~ bXFX6X XzX;XmX>X:X:XP.: ^ J 7 j B.m.F H.H.F.m.B m.D.F.l p KXKXKXKXKXKXKXKXKXKXKXKXKX",
"KXKXKXKXKXKXKXKXKXKXKXKXKXKXKX&XDXzXi.w P [ A l ! ;.) ! ZXDX1Xi.j.&.O F W.D S G.B.N n.M.p KXKXKXKXKXKXKXKXKXKXKXKXKX",
"KXKXKXKXKXKXKXKXKXKXKXKXKXKXKX<XzXh.o.    o h ~.pXxXlX3XmXeXz.c.q.o.0 u B.N C H.; . h N.B.KXKXKXKXKXKXKXKXKXKXKXKXKX",
"KXKXKXKXKXKXKXKXKXKXKXKXKXKXP.<X).9.s.#   . z ~.FXHX&Xe.y.z.c.9.o.9.< . 8 8 8 l J K ` ( F.V.KXKXKXKXKXKXKXKXKXKXKXKX",
"KXKXKXKXKXKXKXKXKXKXKXKXKXKXKX*X2 X.g.s.%   o L.MXy.r i.0Xj.3.a.h.Y ~ # >.E.I..X6X5XfX$X!.L.KXKXKXKXKXKXKXKXKXKXKXKX",
"KXKXKXKXKXKXKXKXKXKXKXKXKXKXKX[ + $ o.f.f.e w &.9.&.l.9Xd.j.z.z.<.aXxX*XbX2Xi.h. X+X}.{.:XKXKXKXKXKXKXKXKXKXKXKXKXKX",
"KXKXKXKXKXKXKXKXKXKXKXKXKXKXKXK o @ 7 ..f.g.g.s.&.&.E X.9.d.9.<.4XCXVX4Xy.k.w.t.u.l.u.t.[.{.KXKXKXKXKXKXKXKXKXKXKXKX",
"KXKXKXKXKXKXKXKXKXKXKXKXKXKXKXH & & 0 4 @.+.+.+.X.q o.&.t t 1.4XVXmX>X2 `.[ 9.8XrXrXtXz.u.+X{.KXKXKXKXKXKXKXKXKXKXKX",
"KXKXKXKXKXKXKXKXKXKXKXKXKXKXKXKX. & @ 5 ....4 4 t =.9.1.1.~.hXVXMX,XJ w (.e 8X}.|.r.eX+Xq.p.1X{.KXKXKXKXKXKXKXKXKXKX",
"KXKXKXKXKXKXKXKXKXKXKXKXKXKXKXKXX X & @ 4 5 7 w 7 h S ^.iXZXVXVX5X_.5 OX2 |.{.i.0Xc.@X].h.a.0.lXKXKXKXKXKXKXKXKXKXKX",
"KXKXKXKXKXKXKXKXKXKXKXKXKXKXKXKXKXO X & : g v -.].3XaXNXCXVXCXbX[. .@.>X5 +X@Xx.c.9X7XP tXqX2.<X@XKXKXKXKXKXKXKXKXKX",
"KXKXKXKXKXKXKXKXKXKXKXKXKXKXKXKXKXKXO X : $.Q.3XaXbXVXCXCXbXmXXXt.o.3.eX9.0.i.9XeX:Xr.8XtXqXh.>Xy.KXKXKXKXKXKXKXKXKX",
"KXKXKXKXKXKXKXKXKXKXKXKXKXKXKXKXKXKXKX* & M F.^./.aXZXCXmX&X| *.w.*.3.1X8X8X8X[.r.l.wXwXqXrX5X*.a.e.KXKXKXKXKXKXKXKX",
"KXKXKXKXKXKXKXKXKXKXKXKXKXKXKXKXKXKXKXKX+ u S.F.W.=X*X5XlX5X5X%.8.@X3.E (.{ P u.wXwXwX9XvX1Xw.6.+.w.KXKXKXKXKXKXKXKX",
"KXKXKXKXKXKXKXKXKXKXKXKXKXKXKXKXKXKXKXKXKX& m F.J.R.<XsX[.>XdX%.+.@X2Xf...$ l.wX0X9XeX7X[.@Xj.5.X.t.KXKXKXKXKXKXKXKX",
"KXKXKXKXKXKXKXKXKXKXKXKXKXKXKXKXKXKXKXKXKXf o L.L.L.4XZXZXVXeXX.4.q.+Xj.@.t 9Xx.tXeX(.t.9XtXg.5.r | ` KXKXKXKXKXKXKX",
"KXKXKXKXKXKXKXKXKXKXKXKXKXKXKXKXKXKXKXKXKX$.6 , ; b T.aXbXVX@XX.5.s.0.:X@X:.@XeX1XP i.wX0Xa.6.@.`.mXdX] KXKXKXKXKXKX",
"KXKXKXKXKXKXKXKXKXKXKXKXKXKXKXKXKXKXKXKXKX$.$.o o : V ;.I.'.w.E 8.P w p.r.}.} E 4 w 0.l.a.#.O.:.4XaX=X&X_.KXKXKXKXKX",
"KXKXKXKXKXKXKXKXKXKXKXKXKXKXKXKXKXKXKXKXKXKXK.f : : f $.K.3XoX*.r.gXl &.v.f.q.3.@.0 w T q U :XGXpXJ.,X:X;XKXKXKXKXKX",
"KXKXKXKXKXKXKXKXKXKXKXKXKXKXKXKXKXKXKXKXKXKXT.;.g D.n v 8 U I.' ] U & 7 0.d.5.o.% = h F ^.=XmXmX,X}.W C.}.KXKXKXKXKX",
"KXKXKXKXKXKXKXKXKXKXKXKXKXKXKXKXKXKXKXKXKXKXKXT.z D././.9 & g B F D.B o e q.q., & b.F.%XfXsXP.P._ O < ` :XKXKXKXKXKX",
"KXKXKXKXKXKXKXKXKXKXKXKXKXKXKXKXKXKXKXKXKXKXKXKX-.b G.3X>.A F.Q././.n   > ' ; a b.M.n Y.5X7X:XlX(.  * L <XcX,XK KXKX",
"KXKXKXKXKXKXKXKXKXKXKXKXKXKXKXKXKXKXKXKXKXKXKXKXKX>.n J.3Xv A T.3X/.#   K #Xa a | ;X<XlX(.W lXC.k i } *XiXgX-X$XKXKX",
"KXKXKXKXKXKXKXKXKXKXKXKXKXKXKXKXKXKXKXKXKXKXKXKXKXKX^ 8 v 8 @ A ~.>.@ = J P.C P.;X(.` { L [.;X= 1 xXHXdXJ.*X<X;XKXKX",
"KXKXKXKXKXKXKXKXKXKXKXKXKXKXKXKXKXKXKXKXKXKXKXKXKXKXKXKX8 6 @ + n <.P.I.R.%XdXdXU.K <   ).] < - 1 P..X[ { I _ { KXKX",
"KXKXKXKXKXKXKXKXKXKXKXKXKXKXKXKXKXKXKXKXKXKXKXKXKXKXKXKXKXU D z b dX3X^.kXVXmXdXhXR.H O / -   I '.j = J 2 2 _ [.KXKX",
"KXKXKXKXKXKXKXKXKXKXKXKXKXKXKXKXKXKXKXKXKXKXKXKXKXKXKXKXKXI.U K.F.-.T.~.MXzX_.{.#X}.G o = U = < P.~ ` ;X<XxX,XdX&XKX",
"KXKXKXKXKXKXKXKXKXKXKXKXKXKXKXKXKXKXKXKXKXKXKXKXKXKXKXKXKXR.'.>.T.;.n G 8 8 l s d / (.  I JX(.O 1XAX$XiXbXfX-.!._.KX",
"KXKXKXKXKXKXKXKXKXKXKXKXKXKXKXKXKXKXKXKXKXKXKXKXKXKXKXKXKXI.] lX>.Y.! , 8 h F W s A.[.{ k &X` 2 ,XdXP.$X*X&X&X[.(.KX",
"KXKXKXKXKXKXKXKXKXKXKXKXKXKXKXKXKXKXKXKXKXKXKXKXKXKXKXKXKX| ,.XXBX{.L.P 9 0 E r.i } I { ` XX,X~ o p ' H O 2 _ (.KXKX",
"KXKXKXKXKXKXKXKXKXKXKXKXKXKXKXKXKXKXKXKXKXKXKXKXKXKXKXKX<X>X,.C.5XDXlXO 9 X.d.z._ G P O ` ;XC.= + K } | [ ~ } _.KXKX",
"KXKXKXKXKXKXKXKXKXKXKXKXKXKXKXKXKXKXKXKXKXKXKXKXKXKXAXAXnX{.Y <X<X| |.  % O.d.wXr.2 P P G i - U ~ nXGX~.iXbX].(._.KX",
"KXKXKXKXKXKXKXKXKXKXKXKXKXKXKXKXKXKXKXKXKXKXKXcXAXGXHXnX5X+X .DX{.} i   . &.9.l.1X_ O { H G 1 &XP.[ P.U.$X*X].{ [.KX",
"KXKXKXKXKXKXKXKXKXKXKXKXKXKXKXKXKXKX1X<XlXcXGXGXHXnX:X6X5X` xXnX| |.#     w 9.O.lX}.. O I _ * i Y k < > _ :XC.] E.L ",
"KXKXKXKXKXKXKXKXKXKXKXKXKXKXKXKXKXAXHXnXcXHXHXGXcX,.5XzX`.cXzX:X].Y   + # O 1 r zX5X,   - W _ H &XlX[.2 > 2 i .X%XI ",
"KXKXKXKXKXKXKXKXKXKXKXKXKXKXKXKXKXAXzXcXGXHXDXSXe.,.5XlXDXSX1X<X .+ : 6 = : u g ,XBX(.. X / ] = > i W L . X K fX$XKX",
"KXKXKXKXKXKXKXKXKXKXKXKXKXKXKXKXKX1XnXHXGXnXGXAXvXcXcXDXDX5XlX_.& g V h m S.S.N.V.bXdX{ . O > X u i / < O 1 H.kX&XKX",
"KXKXKXKXKXKXKXKXKXKXKXKXKXKXKXKXKXAXHXGXvXGXGXSXnXSXDXAXlXcX}.@ g b V B G.Q.Q.G.Z P.K.Q G <     X * = G < P B.Y.KXKX",
"KXKXKXKXKXKXKXKXKXKXKXKXKXKXKXKXKXHXHXGXGXHXcXeXSXSXxXlXDX[.. 6 b D S Q././.3XQ.( b.x V.U.^ I I i I C.W a i 1X{ KXKX",
"KXKXKXKXKXKXKXKXKXKXKXKXKXKXKXKXKXGXHXGXHXcX).SXSXxX7XHX1X  : b Z $.Q./.aXhXkX~.L.b.* }.HXiX;.`.A.A.A.!.B.u / KXKXKX"
};
