/* XPM */
static char *_582212317169[] = {
/* columns rows colors chars-per-pixel */
"10 10 46 1 ",
"  c #5C3B2B",
". c #5B2F59",
"X c #723D6B",
"o c #723678",
"O c #564F56",
"+ c #694F4E",
"@ c #725A5E",
"# c #7A5F5D",
"$ c #5E5763",
"% c #5F4A76",
"& c #7A4872",
"* c #775E7E",
"= c #70626E",
"- c #7A6C76",
"; c #80546A",
": c #8E696A",
"> c #85617C",
", c #816B7B",
"< c #826B7D",
"1 c #927F72",
"2 c #917F77",
"3 c #9A8B74",
"4 c #AA816C",
"5 c #A88E75",
"6 c #B19A7F",
"7 c #B3A471",
"8 c #763A8A",
"9 c #8A7787",
"0 c #877C84",
"q c #8D7B89",
"w c #917880",
"e c #A061A1",
"r c #A77AA5",
"t c #8E818C",
"y c #968292",
"u c #9D899D",
"i c #A88D8F",
"p c #AC9E80",
"a c #BB9E91",
"s c #BBAD8E",
"d c #B291B1",
"f c #D0B783",
"g c #D5D0D0",
"h c #DBD4D4",
"j c #E9E3E7",
"k c None",
/* pixels */
"kkkkkkkkkk",
"kyu32dkkkk",
"k9,5@.8kkk",
"kkk1i:okkk",
"kkk 4apskk",
"kkkkr67fkk",
"kkkkX;#wtk",
"kkkkk><$qk",
"kkkkh0+O=-",
"kkkjg&e*%k"
};
