/* XPM */
static char *_582214515359[] = {
/* columns rows colors chars-per-pixel */
"25 25 234 2 ",
"   c #3D1204",
".  c #371D10",
"X  c #2B221F",
"o  c #32241C",
"O  c #3E2D24",
"+  c #3B3929",
"@  c #531A04",
"#  c #40230F",
"$  c #4F220A",
"%  c #57220A",
"&  c #5B2509",
"*  c #4C2D1C",
"=  c #512E18",
"-  c #4C3917",
";  c #692D06",
":  c #623F1C",
">  c #4A3523",
",  c #493325",
"<  c #423922",
"1  c #463629",
"2  c #553725",
"3  c #583922",
"4  c #523C2A",
"5  c #573E2A",
"6  c #553C2C",
"7  c #5E3D28",
"8  c #4D3B31",
"9  c #613A20",
"0  c #38450B",
"q  c #634D16",
"w  c #6C4318",
"e  c #6D4919",
"r  c #774C1F",
"t  c #7D4F1B",
"y  c #75541A",
"u  c #7E541E",
"i  c #44432D",
"p  c #564627",
"a  c #554028",
"s  c #53452D",
"d  c #54452E",
"f  c #5F5729",
"g  c #524531",
"h  c #534B31",
"j  c #5C4F33",
"k  c #4C5736",
"l  c #59543E",
"z  c #674023",
"x  c #614527",
"c  c #61422D",
"v  c #68482D",
"b  c #744323",
"n  c #7F4523",
"m  c #7D4A24",
"M  c #63502D",
"N  c #60522D",
"B  c #6A562B",
"V  c #6B512D",
"C  c #665B2A",
"Z  c #7E5A27",
"A  c #76512D",
"S  c #72582A",
"D  c #715D2E",
"F  c #644B36",
"G  c #644C34",
"H  c #734930",
"J  c #6E5035",
"K  c #6B5936",
"L  c #6B5D37",
"P  c #61523B",
"I  c #67513B",
"U  c #6A553D",
"Y  c #7A5833",
"T  c #7B5B32",
"R  c #715E38",
"E  c #767A29",
"W  c #6E6530",
"Q  c #534F47",
"!  c #5F5D45",
"~  c #5A5E4D",
"^  c #695F4A",
"/  c #715744",
"(  c #725B40",
")  c #5D664C",
"_  c #6F6743",
"`  c #73644E",
"'  c #77654E",
"]  c #7F754E",
"[  c #7A6759",
"{  c #726B58",
"}  c #893306",
"|  c #813B0E",
" . c #9A3506",
".. c #A13C0B",
"X. c #8B470E",
"o. c #91420E",
"O. c #96420E",
"+. c #824613",
"@. c #80411A",
"#. c #954313",
"$. c #954615",
"%. c #86551C",
"&. c #9D5915",
"*. c #90671A",
"=. c #AF6015",
"-. c #8B4E20",
";. c #885624",
":. c #8F5B24",
">. c #81572B",
",. c #875A35",
"<. c #8A5834",
"1. c #805C38",
"2. c #875C3D",
"3. c #A25928",
"4. c #876826",
"5. c #9F6925",
"6. c #906D29",
"7. c #986C2A",
"8. c #977127",
"9. c #9A7721",
"0. c #977821",
"q. c #876237",
"w. c #826737",
"e. c #8F6A34",
"r. c #886C39",
"t. c #9E6D34",
"y. c #857636",
"u. c #81783F",
"i. c #8D7E3E",
"p. c #9F7F32",
"a. c #A8712B",
"s. c #A97D28",
"d. c #BB712B",
"f. c #A47A33",
"g. c #A07D32",
"h. c #B77631",
"j. c #B3793D",
"k. c #BA7A38",
"l. c #BB783C",
"z. c #C37F12",
"x. c #C57F12",
"c. c #83634B",
"v. c #816D48",
"b. c #8E7142",
"n. c #8C754E",
"m. c #937846",
"M. c #897452",
"N. c #82795F",
"B. c #75A51A",
"V. c #719229",
"C. c #78A52F",
"Z. c #7E806C",
"A. c #7F8670",
"S. c #98803D",
"D. c #98813F",
"F. c #9C873E",
"G. c #A9862F",
"H. c #B4942D",
"J. c #A1823E",
"K. c #B08530",
"L. c #B78335",
"P. c #B18B36",
"I. c #A09535",
"U. c #80A427",
"Y. c #83B324",
"T. c #BCA426",
"R. c #CD841C",
"E. c #D69319",
"W. c #D0901D",
"Q. c #E89B1A",
"!. c #E7AA15",
"~. c #C38221",
"^. c #C59B20",
"/. c #D89F21",
"(. c #DE9E23",
"). c #DD9B26",
"_. c #D29937",
"`. c #DBA82D",
"'. c #CAAB34",
"]. c #C8AB3F",
"[. c #D6A832",
"{. c #D4AA39",
"}. c #D6AB3D",
"|. c #D8BE3F",
" X c #ECBF2D",
".X c #91C328",
"XX c #F9CD2E",
"oX c #EFC83A",
"OX c #9C8047",
"+X c #988444",
"@X c #9D9748",
"#X c #908452",
"$X c #A98441",
"%X c #B18F42",
"&X c #BD9646",
"*X c #BE9F46",
"=X c #B59F4E",
"-X c #A4885D",
";X c #B19E55",
":X c #BD9F52",
">X c #9CA052",
",X c #BCB34E",
"<X c #B1A254",
"1X c #8C8568",
"2X c #8B8E79",
"3X c #8B8D7A",
"4X c #938E70",
"5X c #A88E69",
"6X c #A89469",
"7X c #B49D6D",
"8X c #A79874",
"9X c #B19C73",
"0X c #BFB46C",
"qX c #BBA173",
"wX c #D89250",
"eX c #D2BF4D",
"rX c #CDB758",
"tX c #EBBE4D",
"yX c #CAB761",
"uX c #E4AF69",
"iX c #DBC14B",
"pX c #E8C545",
"aX c #E8CC4A",
"sX c #F8C853",
"dX c #E4D276",
"fX c #F2DE74",
"gX c #989B83",
"hX c #A1A486",
"jX c #A7AD8E",
"kX c #B4BBA7",
"lX c #C2B693",
"zX c #E2E9D2",
"xX c #E8F0D7",
"cX c None",
/* pixels */
"cXcXcXcXcXcXcXcXcXcXcXcXcXcXcXcXcXcXcXcXcXcXcXcXcX",
"cXcXcXcXcXcXcXcXcXcXcXcXcXcXcXcXcXcXcXcX3XZ.3XcXcX",
"cXcXcXcXcXcXcXcXcXcXcXcXcXcXcXcXcXcXcXcX8X-X4XgXcX",
"cXcXcXcXcXcXcXcXcXcXcXcXcXcXcXcXcXcXcXkX<. .3.1XcX",
"cXcXcXcXcXcXcXcXcXcXcXcXcXcXcXcXcXcXcX{ 9 @ } / cX",
"cXcXcXcXcXcXcXcXcXcXcXcXcXcXcXcXcXcXcXI 2 * H cXcX",
"cXcXcXcXcXcXcX~.`.cXcXS.cXcXcXcXcXcXd ( c G 4 cXcX",
"cXcXcXcXcXcX[.).(.G.u.,XrX#XaX_.qXlX7XuXc.1 o cXcX",
"cXcXcXcXcXcXi.{.E.*.+XpXP.iXR.5XzXzX9XwX2.F , cXcX",
"cXcXcXcXcXcXcX=Xs.e r.oXH.a.> A.jXhX` 4 O 8 cXcXcX",
"cXcXcXcXcXcXF.Z R w.D }.9.` h < + i cXcXcXcXcXcXcX",
"cXcXcX] ~ cX%X@.Q ) k ].^.P j L C cXcXcXcXcXcXcXcX",
"cXcXcXS.! X _ 5.[ N.v :X'.4.t a C cXcXcXcXcXcXcXcX",
"cXcXcXcXS J M.J.:.&XsXfXeX0.w V N cXcXcXcXcXcXcXcX",
"cXcXcXcXcXY b d *Xt.dXyX0X;Xv.p M cXcXcXcXcXcXcXcX",
"cXcXcXcXcXcXcXcXcXm.1.U ' 6Xn.l K cXcXcXcXcXcXcXcX",
"cXcXcXcXcXcXcXcXcXcXcXb.,.l.u g q.$XcXcXcXcXcXcXcX",
"cXcXcXcXcXcXcXcXcXcXf.OXy.7.p.8.: -.e.cXcXcXcXcXcX",
"cXcXcXcXcXcXcXcXcXcXA @XC.I. X/.;.. x cXcXcXcXcXcX",
"cXcXcXcXcXcXcXcXcX<X|.T.E W.x.o.r g.cXcXcXcXcXcXcX",
"cXcXcXcXcXcXcXcXtXXX!.&.l.=.#.| L.K.cXcXcXcXcXcXcX",
"cXcXcXcXcXcXcXh.Q.R.; = %.+.$ b j.cXcXcXcXcXcXcXcX",
"cXcXcXcXcXcXd.#.X.& 9 >XY.C.0 -.>.cXcXcXcXcXcXcXcX",
"cXcXcXcXcXB #...% 3 cXcX.XB.q z 6.cXcXcXcXcXcXcXcX",
"cXcXcXcXcXV.#   a cXcXcXcXW - y Y cXcXcXcXcXcXcXcX"
};
