/* XPM */
static char *_582218835487[] = {
/* columns rows colors chars-per-pixel */
"58 58 250 2 ",
"   c #180A06",
".  c #1A1713",
"X  c #0F0B09",
"o  c #240C04",
"O  c #290D04",
"+  c #291409",
"@  c #3A1709",
"#  c #251A15",
"$  c #381D14",
"%  c #2B240D",
"&  c #38250E",
"*  c #2B2617",
"=  c #322A1C",
"-  c #392618",
";  c #353316",
":  c #392D23",
">  c #393328",
",  c #35342F",
"<  c #1C3905",
"1  c #461A08",
"2  c #551D08",
"3  c #46230C",
"4  c #58240A",
"5  c #452816",
"6  c #572C16",
"7  c #4A351A",
"8  c #583619",
"9  c #52310D",
"0  c #68270B",
"q  c #75290B",
"w  c #78310B",
"e  c #662C11",
"r  c #663818",
"t  c #753616",
"y  c #6E340B",
"u  c #443323",
"i  c #443A23",
"p  c #473727",
"a  c #553A26",
"s  c #483E33",
"d  c #4B2E21",
"f  c #653C25",
"g  c #6F1D09",
"h  c #3E6D0C",
"j  c #5A441B",
"k  c #465614",
"l  c #774619",
"z  c #7C571A",
"x  c #6B4615",
"c  c #4D4429",
"v  c #544A2B",
"b  c #594829",
"n  c #494738",
"m  c #574938",
"M  c #5B543B",
"N  c #5D542C",
"B  c #634B2B",
"V  c #674628",
"C  c #754A27",
"Z  c #68562A",
"A  c #775928",
"S  c #644B37",
"D  c #695937",
"F  c #765836",
"G  c #784F37",
"H  c #526A26",
"J  c #77672B",
"K  c #766438",
"L  c #6D6F35",
"P  c #5A7316",
"I  c #545444",
"U  c #5C5C48",
"Y  c #575249",
"T  c #685749",
"R  c #735F53",
"E  c #766348",
"W  c #696A56",
"Q  c #776653",
"!  c #7A765A",
"~  c #6E6F4E",
"^  c #787866",
"/  c #6F7163",
"(  c #8A370C",
")  c #853E15",
"_  c #8F340B",
"`  c #A33D0D",
"'  c #99460E",
"]  c #9A4715",
"[  c #87571B",
"{  c #985814",
"}  c #8C4712",
"|  c #A7450C",
" . c #B4480D",
".. c #B8580E",
"X. c #A75913",
"o. c #B95A16",
"O. c #A34B19",
"+. c #97691C",
"@. c #85671F",
"#. c #A9791B",
"$. c #B8791B",
"%. c #B16713",
"&. c #88582A",
"*. c #955826",
"=. c #875D35",
"-. c #925C34",
";. c #834A27",
":. c #A75A23",
">. c #896726",
",. c #9A6A29",
"<. c #9A7628",
"1. c #886A36",
"2. c #956837",
"3. c #867437",
"4. c #987739",
"5. c #8F712D",
"6. c #B86A29",
"7. c #A87837",
"8. c #B57836",
"9. c #AD742A",
"0. c #C97717",
"q. c #D27919",
"w. c #CC6C16",
"e. c #C8792E",
"r. c #C05F10",
"t. c #876744",
"y. c #976A43",
"u. c #887749",
"i. c #977945",
"p. c #877458",
"a. c #937D58",
"s. c #8A6B50",
"d. c #A9764A",
"f. c #AC7D4F",
"g. c #827F6C",
"h. c #5D891C",
"j. c #538F0E",
"k. c #74B213",
"l. c #74922C",
"z. c #5C8524",
"x. c #7B8262",
"c. c #B5861C",
"v. c #AD8019",
"b. c #94853E",
"n. c #AA9332",
"m. c #B18E31",
"M. c #90B236",
"N. c #D68918",
"B. c #DB9918",
"V. c #C9901B",
"C. c #DEAA18",
"Z. c #E9A81B",
"A. c #E8B71C",
"S. c #F1BB1B",
"D. c #F2A91A",
"F. c #C78723",
"G. c #D59524",
"H. c #D89335",
"J. c #CC8D2F",
"K. c #E59B26",
"L. c #EE9829",
"P. c #D9AA27",
"I. c #CBA738",
"U. c #D2A92F",
"Y. c #E7A729",
"T. c #E8B829",
"R. c #E4A935",
"E. c #EFB732",
"W. c #E59E17",
"Q. c #96C81B",
"!. c #8FCD1A",
"~. c #96C526",
"^. c #A4D330",
"/. c #AEE02A",
"(. c #E8C52B",
"). c #F4D82D",
"_. c #F8C635",
"`. c #F6D134",
"'. c #F0CB31",
"]. c #FDEA3C",
"[. c #D8D924",
"{. c #988847",
"}. c #988655",
"|. c #95904C",
" X c #A88748",
".X c #B68C47",
"XX c #A99949",
"oX c #B79B4A",
"OX c #AA9858",
"+X c #AD8652",
"@X c #AAA458",
"#X c #AFAB55",
"$X c #87866C",
"%X c #938B69",
"&X c #888B77",
"*X c #959478",
"=X c #97946E",
"-X c #A99569",
";X c #A78F70",
":X c #9EA27B",
">X c #ADA268",
",X c #BBB366",
"<X c #ACA977",
"1X c #B9A96A",
"2X c #CB8F44",
"3X c #E49547",
"4X c #C6A847",
"5X c #C8A757",
"6X c #D1B04D",
"7X c #ECB847",
"8X c #EDB051",
"9X c #D09B64",
"0X c #C7B869",
"qX c #D0AF77",
"wX c #F8BE64",
"eX c #EAAE75",
"rX c #AECF51",
"tX c #D7C557",
"yX c #F9D74C",
"uX c #F7D658",
"iX c #EFCC52",
"pX c #FEF152",
"aX c #D5C774",
"sX c #D5CA73",
"dX c #EED66D",
"fX c #F7E56E",
"gX c #F8F070",
"hX c #CBEF6D",
"jX c #9EA388",
"kX c #ABA683",
"lX c #A7A793",
"zX c #B6B69B",
"xX c #B5B4A4",
"cX c #999B8A",
"vX c #D2AF83",
"bX c #BDC59F",
"nX c #BEC2A7",
"mX c #BDC0B3",
"MX c #CDC687",
"NX c #FAF792",
"BX c #C4CAA7",
"VX c #D5D8B6",
"CX c #CCD1B0",
"ZX c #EAD995",
"AX c #D7D8CB",
"SX c #DDE2C9",
"DX c #E5EAD0",
"FX c #FDFEEB",
"GX c #FFFFF4",
"HX c None",
/* pixels */
"HXHXHXHXHXHXHXHXHXHXHXHXHXHXHXHXHXHXHXHXHXHXHXHXHXHXHXHXHXHXHXHXHXHXHXHXHXHXHXHXHXHXHXHXHXHXHXHXHX&XHXHXHXHXHXHXHXHX",
"HXHXHXHXHXHXHXHXHXHXHXHXHXHXHXHXHXHXHXHXHXHXHXHXHXHXHXHXHXHXHXHXHXHXHXHXHXHXHXHXHXHXHXHXHXHXHXHX^ CXQ HXHXHXHXHXHXHX",
"HXHXHXHXHXHXHXHXHXHXHXHXHXHXHXHXHXHXHXHXHXHXHXHXHXHXHXHXHXHXHXHXHXHXHXHXHXHXHXHXHXHXHXHXHXHXHXHX/ I HXHX/ &XHXHXHXHX",
"HXHXHXHXHXHXHXHXHXHXHXHXHXHXHXHXHXHXHXHXHXHXHXHXHXHXHXHXHXHXHXHXHXHXHXHXHXHXHXHXHXHXHXHXHXHXHXHXxX&XHXBXnX*XHXHXHXHX",
"HXHXHXHXHXHXHXHXHXHXHXHXHXHXHXHXHXHXHXHXHXHXHXHXHXHXHXHXHXHXHXHXHXHXHXHXHXHXHXHXHXHXHXHXHXHXHXHXCX=XW SX%XHXHXHXHXHX",
"HXHXHXHXHXHXHXHXHXHXHXHXHXHXHXHXHXHXHXHXHXHXHXHXHXHXHXHXHXHXHXHXHXHXHXHXHXHXHXHXHXHXHXHXHXHXHXHXjX%X1.kXc &XlXcXHXHX",
"HXHXHXHXHXHXHXHXHXHXHXHXHXHXHXHXHXHXHXHXHXHXHXHXHXHXHXHXHXHXHXHXHXHXHXHXHXHXHXHXHXHXHXHXHXHXHXHX:.` w._ G VXzX=XHXHX",
"HXHXHXHXHXHXHXHXHXHXHXHXHXHXHXHXHXHXHXHXHXHXHXHXHXHXHXHXHXHXHXHXHXHXHXHXHXHXHXHXHXHXHXHXHXmXxXa.( _ ( ` o.1.! ~ lXHX",
"HXHXHXHXHXHXHXHXHXHXHXHXHXHXHXHXHXHXHXHXHXHXHXHXHXHXHXHXHXHXHXHXHXHXHXHXHXHXHXHXHXHXHXHXlXSXCXE 0 g _  . .q C g.lXHX",
"HXHXHXHXHXHXHXHXHXHXHXHXHXHXHXHXHXHXHXHXHXHXHXHXHXHXHXHXHXHXHXHXHXHXHXHXHXHXHXHXHXHXHXHXlXU n t.O.2 @ |  .0 6 *X&XHX",
"HXHXHXHXHXHXHXHXHXHXHXHXHXHXHXHXHXHXHXHXHXHXHXHXHXHXHXHXHXHXHXHXHXHXHXHXHXHXHXHXHXHXHXHXHXY d f @ O   q  .2 a HXHXHX",
"HXHXHXHXHXHXHXHXHXHXHXHXHXHXHXHXHXHXHXHXHXHXHXHXHXHXHXHXHXHXHXHXHXHXHXHXHXHXHXHXHXHXHXHXHXp.y.O o 2 o 0 w 6 HXHXHXHX",
"HXHXHXHXHXHXHXHXHXHXHXHXHXHXHXHXHXHX>.<.HXHXHXHXHXHXHXHXHXHXHXHXHXHXHXHXHXHXHXHXHXHXHXHXHX, a.S O @ - @ 3 ;XHXHXHXHX",
"HXHXHXHXHXHXHXHXHXHXHXHXHXHXHXHXHX>.G.R.HXHXHXHXHXHXHXHXHXHXHXHXHXHXHXHXHXHXHXHXHXHXHXHXX n y.Q R S ;Xs.s.a.HXHXHXHX",
"HXHXHXHXHXHXHXHXHXHXHXHXHXHXHXHX[ F.Y.T.I.HXHXHXHX4.4.HXHXHXHXHXHXHXHXHXHXHXHXHXHXHXHX. u m d.e 5 m Q D V # HXHXHXHX",
"HXHXHXHXHXHXHXHXHXHXHXHXc +.#.F.N.Y.Y.P.P.HXHXHX@XiX1.L {.|.m s HXHX0X4Xb.HXHXHXJ.HXHXa d.T s.;.6 5 9 6 $ . HXHXHXHX",
"HXHXHXHXHXHXHXHXHXHXHXHXK I.P.T.Y.F.#.K.E.n. Xi #X#XtXpXgXNX>XV u.dXgXR.G.aXf.J.oX-XE qXvXeXa.T $ # : : # = HXHXHXHX",
"HXHXHXHXHXHXHXHXHXHXHXHXHX|.R.T.Y.J.$.K.Z.c.D 4.L c u.,X#X3.Y p.gX`.(.G.H.+X;XxXAXAX^ qXwXwXZX9XT s u n # = HXHXHXHX",
"HXHXHXHXHXHXHXHXHXHXHXHXHXHXi.I.E.Y.G.B.D.P.B {.{.#XuX'.T.<.! gX].`.L.0.2.xXDXGXFXFXlX}.wX3X3X9X;Xs.p.M $ - HXHXHXHX",
"HXHXHXHXHXHXHXHXHXHXHXHXHXHXHXoX4XF.G.B.W.v.8 >.b.pX].`.E.oX@XpX_.L.o.V BXFXDXDXSXSXxX=.qX3Xe.-.$ 6 D a d HXHXHXHXHX",
"HXHXHXHXHXHXHXHXHXHXHXHXHXHXHXi fXn.#.c.#.x x b -XwX5X8.9.b XX_.F.} 8 U bXCXbXnXCXVXSXK K eXd.S 5 f : d HXHXHXHXHXHX",
"HXHXHXHXHXHXHXHXHXHXHXHXHXHXHXHX+XgXF.$.#.z F v D J.P.'.(.A .XY.} % T *XbXbXnXCXCXBXjXn f p R T d T T R HXHXHXHXHXHX",
"HXHXHXHXHXHXHXHXHXHXHXHXHXHXHXN B sX6XA j +.V & {.yX].].).5.2.J.7 . U n *XjXcXx.W U M n : 5 # X . # HXHXHXHXHXHXHXHX",
"HXHXHXHXHXHXHXHXHXHXHXHXHXHXN Z <.[ |. X5.[ l &  XyXY.T.P.z V =./ , ; . X . , I M D N > HXHXp . HXHXHXHXHXHXHXHXHXHX",
"HXHXHXHXHXHXHXHXU &Xx.HXHXdXXXXXv.6 : b 3. XF n B 9.<. X[ & : kX$Xi Z v v : = * , : HXHXHXHXHXHXHXHXHXHXHXHXHXHXHXHX",
"HXHXHXHXHXHXHXHX^ x.W HXHXdX}.8.) 6 T , W :Xx.H * t.fXyX(.U.B $XI 8 >.c K v N HXHXHXHXHXHXHXHXHXHXHXHXHXHXHXHXHXHXHX",
"HXHXHXHXHXHXHXt.W W > HXHX5.OXyXo.r Y n , n ~ z.n u.).).).P.8 T U i {.b K v H N HXHXHXHXHXHXHXHXHXHXHXHXHXHXHXHXHXHX",
"HXHXHXHXHXHXoXb./ U n HXHX. ~ E.( 2 a ^ / I : D I ~ I.J.#.{ 8 M m ; T > E Z J HXHXHXHXHXHXHXHXHXHXHXHXHXHXHXHXHXHXHX",
"HXHXHXHXHXHXHXm.n &XM # . . c A 2.t 1 g.DXcX: , , s E 0X(.(.+.K #.9 A m v J J = HXHXHXHXHXHXHXHXHXHXHXHXHXHXHXHXHXHX",
"HXHXHXHXHXHXHXoXb.I U : > > W ! iXF.w Y xXcXm r C 2X6XgX].n.A Z c.{ ) $ = K J * HXHXHXHXHXHXHXHXHXHXHXHXHXHXHXHXHXHX",
"HXHXHXHXHXHXHX<.m.A m - m G *X:XtXe.t - Y 6XL.L.8XdXgXMX#Xn.c.4.n.X.1 a b K Z HXHXHXHXHXHXHXHXHXHXHXHXHXHXHXHXHXHXHX",
"HXHXHXHXHXHXHXHX>.>.1.a a +Xi.n c +XJ.] f oXuX7XuXNXgXtXdX].V.z A l 1 F K K v HXHXHXHXHXHXHXHXHXHXHXHXHXHXHXHXHXHXHX",
"HXHXHXHXHXHXHXHXHX>.8 * y.9X-.V * >XyXV.t 1.tXuXuXiX7XfX1XI.U.@.j D C B L B N HXHXHXHXHXHXHXHXHXHXHXHXHXHXHXHXHXHXHX",
"HXHXHXHXHXHXHXHXHXHX- u +X=.r ;.a * -X6X$.t u.ZXNXiXdXtXMX0XsX4.5.}.: N j K D HXHXHXHXHXHXHXHXHXHXHXHXHXHXHXHXHXHXHX",
"HXHXHXHXHXHXHXHXHXHXHXF f C 3 r p . HXdX4X&.) f.NXNX%Xs <XkXMXaX<XqXS ; = 7 F HXHXHXHXHXHXHXHXHXHXHXHXHXHXHXHXHXHXHX",
"HXHXHXHXHXHXHXHXHXHXHXHXHX-.G u HXHXHXHX<X X7.l s.Q s -X>Xs.T kX-XvXp.U M D F HXHXHXHXHXHXHXHXHXHXHXHXHXHXHXHXHXHXHX",
"HXHXHXHXHXHXHXHXHXHXHXHXHXHXHXHXHXHXHXHXHXY ,XK f r a T m u ;XOX}.u.5 > ^ D F > HXHXHXHXHXHXHXHXHXHXHXHXHXHXHXHXHXHX",
"HXHXHXHXHXHXHXHXHXHXHXHXHXHXHXHXHXHXHXHXHXHXHXHXF m 2.&.d t.vXd.m.,.9 ~ ! Z u. XHXHXHXHXHXHXHXHXHXHXHXHXHXHXHXHXHXHX",
"HXHXHXHXHXHXHXHXHXHXHXHXHXHXHXHXHXHXHXHXHXHXHXHXHXHXHX.Xa i.6.6.8.9.9 n - u  XC {.OXHXHXHXHXHXHXHXHXHXHXHXHXHXHXHXHX",
"HXHXHXHXHXHXHXHXHXHXHXHXHXHXHXHXHXHXHXHXHXHXHXHXHXHX<XOXt -.d.:.7.,.$ > D 8.;.i.6.6X,XHXHXHXHXHXHXHXHXHXHXHXHXHXHXHX",
"HXHXHXHXHXHXHXHXHXHXHXHXHXHXHXHXHXHXHXHXHXHXHXHX@XoXi.>XC G 6.O.,.>.A m.[ l # j ( o..XF HXHXHXHXHXHXHXHXHXHXHXHXHXHX",
"HXHXHXHXHXHXHXHXHXHXHXHXHXHXHXHXHXHXHXHXHXHXHXoXc.X.z >Xb.l.P n.m.4Xn.m.>.A 6 & 6 q 7.B HXHXHXHXHXHXHXHXHXHXHXHXHXHX",
"HXHXHXHXHXHXHXHXHXHXHXHXHXHXHXHXHXHXHXHXHXHXHX:.e a }.~ l.~.h.J oXtX'.T.A.R.e.& + @ &.i HXHXHXHXHXHXHXHXHXHXHXHXHXHX",
"HXHXHXHXHXHXHXHXHXHXHXHXHXHXHXHXHXHXHXHXHXHXi.- : F ,XhXh.l.L OX'.S.Y.C.B.F.C o X o =.S HXHXHXHXHXHXHXHXHXHXHXHXHXHX",
"HXHXHXHXHXHXHXHXHXHXHXHXHXHXHXHXHXHXHXHXHXHXM n aXiXn.^.Q.l.5.S.S.A.B.0.X.-.G 7.3.  a HXHXHXHXHXHXHXHXHXHXHXHXHXHXHX",
"HXHXHXHXHXHXHXHXHXHXHXHXHXHXHXHXHXHXHXHXHX|.u.tXpXZ.#.^.l.% F.D.D.B.%.} q 4 + 9.yX8 F HXHXHXHXHXHXHXHXHXHXHXHXHXHXHX",
"HXHXHXHXHXHXHXHXHXHXHXHXHXHXHXHXHXHXHX}.0XdXyX).A.C.0.>.B d.X.B.N.X.0 _ ..w $ I._.8 HXHXHXHXHXHXHXHXHXHXHXHXHXHXHXHX",
"HXHXHXHXHXHXHXHXHXHXHXHXHXHXHXHXHXHXaXdXuX'.(.A.A.C...r 5X7Xt t X.( w r.{ 4 ,.uXJ.HXHXHXHXHXHXHXHXHXHXHXHXHXHXHXHXHX",
"HXHXHXHXHXHXHXHXHXHXHXHXHXHXHXHXHXaX8XE.S.T.A.C.B.q.| V J.L.X.X.N.` ( y 1 :.8X7XC HXHXHXHXHXHXHXHXHXHXHXHXHXHXHXHXHX",
"HXHXHXHXHXHXHXHXHXHXHXHXHXHXHXHXaXH.J.D.S.Z.B.0...` 1 a :.e.] 0.q.0 y e *.2X2X8 X HXHXHXHXHXHXHXHXHXHXHXHXHXHXHXHXHX",
"HXHXHXHXHXHXHXHXHXHXHXHXHXHXHX0X3X} q.Y.Z.N.%.( 2     r ) | & } ' O   C *.d.2X=.HXHXHXHXHXHXHXHXHXHXHXHXHXHXHXHXHXHX",
"HXHXHXHXHXHXHXHXHXHXHXHXHXHXHX8X] 2 o.W.N...4 o X   a #Xh.k % j 3   o & C 8.3XV X HXHXHXHXHXHXHXHXHXHXHXHXHXHXHXHXHX",
"HXHXHXHXHXHXHXHXHXHXHXHXHXHX.Xw.] 0 { w.' 2 @ e 6 i.>XhX!.j.L rXk.h O $ 6.H.V % # HXHXHXHXHXHXHXHXHXHXHXHXHXHXHXHXHX",
"HXHXHXHXHXHXHXHXHXHXHXHXHXd :.w.o.w 0 1 o @ 4 2.}.<XHXrX/.~.~./.Q.< - t O.G 8 C * HXHXHXHXHXHXHXHXHXHXHXHXHXHXHXHXHX",
"HXHXHXHXHXHXHXHXHXHXHXHXHXf o.w.` `  .4   1 r F i HXHX#XQ.!.!.!.k.k l t Y ~ [ 2.HXHXHXHXHXHXHXHXHXHXHXHXHXHXHXHXHXHX",
"HXHXHXHXHXHXHXHXHXHXHXHXp *.| w ( `  .1 1 y.c HXHXHXHXHXrXk.j.h H C 0 $ a +.P.K HXHXHXHXHXHXHXHXHXHXHXHXHXHXHXHXHXHX",
"HXHXHXHXHXHXHXHXHXHXHXrXz.V % 3 _ g 1 o t.R HXHXHXHXHXHXHXM.H L A 6 j J l { <.HXHXHXHXHXHXHXHXHXHXHXHXHXHXHXHXHXHXHX",
"HXHXHXHXHXHXHXHXHXHXHX/.z.; % e O   o E T HXHXHXHXHXHXHXHXHXHX3.z 8 ; ; %.z m HXHXHXHXHXHXHXHXHXHXHXHXHXHXHXHXHXHXHX"
};
