/* XPM */
static char *_582213661375[] = {
/* columns rows colors chars-per-pixel */
"10 10 34 1 ",
"  c #552717",
". c #5F3A24",
"X c #543D2E",
"o c #66561B",
"O c #7D6219",
"+ c #5B482A",
"@ c #575137",
"# c #705027",
"$ c #795A2F",
"% c #705433",
"& c #646520",
"* c #7D6430",
"= c #77603C",
"- c #7F6B3C",
"; c #775D42",
": c #AE6C1E",
"> c #805025",
", c #915D20",
"< c #8C6B21",
"1 c #8F633E",
"2 c #96753F",
"3 c #967C3E",
"4 c #876E43",
"5 c #987940",
"6 c #B18121",
"7 c #B7892A",
"8 c #A78E30",
"9 c #A08738",
"0 c #AE8D3B",
"q c #AF943C",
"w c #9F815C",
"e c #C5AC59",
"r c #B3A984",
"t c None",
/* pixels */
"tttttttttt",
"tttttttt1t",
"ttttttt;.t",
"ttt7q0rwXt",
"tt-=9*@ttt",
"tt%2e3+ttt",
"tttt45$ttt",
"tttt86,ttt",
"ttt:<O>ttt",
"tto t&#ttt"
};
